<svg id="visual" viewBox="0 0 540 960" width="540" height="960" xmlns="http://www.w3.org/2000/svg" xmlns:xlink="http://www.w3.org/1999/xlink" version="1.1"><rect x="0" y="0" width="540" height="960" fill="#f8f9fa"></rect><path d="M0 312L45 309C90 306 180 300 270 297C360 294 450 294 495 294L540 294L540 0L495 0C450 0 360 0 270 0C180 0 90 0 45 0L0 0Z" fill="#64dd17"></path><path d="M0 260L45 259C90 258 180 256 270 253C360 250 450 246 495 244L540 242L540 0L495 0C450 0 360 0 270 0C180 0 90 0 45 0L0 0Z" fill="#00d8c5"></path><path d="M0 200L45 197C90 194 180 188 270 185.8C360 183.7 450 185.3 495 186.2L540 187L540 0L495 0C450 0 360 0 270 0C180 0 90 0 45 0L0 0Z" fill="#00bcf3"></path><path d="M0 131L45 132.2C90 133.3 180 135.7 270 137.2C360 138.7 450 139.3 495 139.7L540 140L540 0L495 0C450 0 360 0 270 0C180 0 90 0 45 0L0 0Z" fill="#0097ff"></path><path d="M0 81L45 80.2C90 79.3 180 77.7 270 78C360 78.3 450 80.7 495 81.8L540 83L540 0L495 0C450 0 360 0 270 0C180 0 90 0 45 0L0 0Z" fill="#2962ff"></path></svg>