<svg id="visual" viewBox="0 0 540 960" width="540" height="960" xmlns="http://www.w3.org/2000/svg" xmlns:xlink="http://www.w3.org/1999/xlink" version="1.1"><rect x="0" y="0" width="540" height="960" fill="#fff"></rect><path d="M0 496L30 501.5C60 507 120 518 180 524.5C240 531 300 533 360 526C420 519 480 503 510 495L540 487L540 961L510 961C480 961 420 961 360 961C300 961 240 961 180 961C120 961 60 961 30 961L0 961Z" fill="#2962ff"></path><path d="M0 554L30 553.2C60 552.3 120 550.7 180 551.3C240 552 300 555 360 569.3C420 583.7 480 609.3 510 622.2L540 635L540 961L510 961C480 961 420 961 360 961C300 961 240 961 180 961C120 961 60 961 30 961L0 961Z" fill="#0097ff"></path><path d="M0 728L30 726.5C60 725 120 722 180 721.5C240 721 300 723 360 715.2C420 707.3 480 689.7 510 680.8L540 672L540 961L510 961C480 961 420 961 360 961C300 961 240 961 180 961C120 961 60 961 30 961L0 961Z" fill="#00bcf3"></path><path d="M0 721L30 726.3C60 731.7 120 742.3 180 747C240 751.7 300 750.3 360 751.7C420 753 480 757 510 759L540 761L540 961L510 961C480 961 420 961 360 961C300 961 240 961 180 961C120 961 60 961 30 961L0 961Z" fill="#00d8c5"></path><path d="M0 873L30 865C60 857 120 841 180 838.7C240 836.3 300 847.7 360 856.3C420 865 480 871 510 874L540 877L540 961L510 961C480 961 420 961 360 961C300 961 240 961 180 961C120 961 60 961 30 961L0 961Z" fill="#64dd17"></path></svg>